<svg xmlns="http://www.w3.org/2000/svg" width="146.977" height="24.469" viewBox="-233.011 408.734 146.977 24.469"><path d="M-203.494 422.324v-9.356h4.124v9.214c0 1.86 1.108 3.205 3.323 3.205 2.168 0 3.3-1.344 3.3-3.205v-9.214h4.1v9.332c0 3.91-2.38 6.668-7.4 6.668-5.067 0-7.447-2.78-7.447-6.644zm17.677 6.362v-15.718h4.052v15.718h-4.052zm16.118 0l-4.123-5.914-1.06 1.32v4.594h-4.054v-15.718h4.053v6.456l4.83-6.456h4.997l-6.103 7.353 6.433 8.366h-4.972zm6.177 0v-15.718h4.053v15.718h-4.053zm10.394 0v-12.182h-4.406v-3.536h12.844v3.535h-4.383v12.182H-153.13zm10.37 0v-15.718h7.87c3.537 0 5.47 2.38 5.47 5.232 0 2.827-1.933 5.207-5.468 5.207h-3.82v5.28h-4.052zm9.215-10.486c0-1.084-.802-1.697-1.885-1.697h-3.276v3.37h3.277c1.084 0 1.886-.613 1.886-1.674zm5.94 10.486v-15.718h4.053v12.183h6.316v3.536h-10.368zm23.142 0l-.777-2.263h-6.198l-.78 2.262h-4.593l5.913-15.718h5.09l5.94 15.718h-4.596zm-3.888-11.71l-2.004 5.914h4.006l-2.004-5.915zm12.325 11.71v-6.338l-5.962-9.38h4.57l3.42 5.798 3.368-5.797h4.596l-5.938 9.38v6.336h-4.053z"/><path fill="#2196F3" d="M-220.02 426.47l-3.465 2-7.794 4.5c-.952.55-1.73.1-1.73-1v-22c0-1.1.78-1.55 1.73-1l7.795 4.5 3.464 2 7.793 4.5c.953.55.953 1.45 0 2l-7.794 4.5z"/><path opacity=".3" fill="#FFF" d="M-221.427 424.03l-3.465 2-4.98 2.876c-.953.55-1.732.1-1.732-1v-15.5c0-1.1.78-1.55 1.732-1l4.98 2.875 3.464 2 4.98 2.876c.952.55.952 1.45 0 2l-4.98 2.875z"/><path opacity=".3" fill="#FFF" d="M-222.835 421.594l-3.464 2-2.164 1.25c-.953.55-1.732.1-1.732-1v-9c0-1.1.78-1.55 1.733-1l2.165 1.25 3.464 2 2.165 1.25c.954.55.954 1.45 0 2l-2.164 1.25z"/></svg>